# Blender 3.6.0 Alpha
# www.blender.org
o Plane_0
v 0.299630 1.085720 0.043430
v 0.431600 1.647020 0.336560
v 0.159600 1.293330 0.271570
v 1.399930 -0.362420 -0.131140
v 0.990580 -1.217550 0.121050
v 0.402960 -1.966510 0.469450
v 0.436340 -1.303760 0.627420
v 0.453210 -0.225040 0.608060
v 0.245160 0.009970 1.065330
v 0.231500 -0.383950 0.743580
v 1.258080 2.507660 -0.480060
v 0.622340 2.758580 -0.116340
v 0.227170 -1.152460 0.706440
v 0.119900 -1.387280 0.668290
v 0.225120 -0.953820 0.666840
v 0.212970 -0.749080 0.792050
v 0.688630 -1.055350 0.422850
v 1.584130 0.946550 -0.414310
v 1.374650 1.608700 -0.229210
v 1.599980 -0.879210 -1.209690
v 0.173330 -1.905450 0.739060
v 0.000000 2.884700 -0.116340
v 1.592110 2.613210 -1.779831
v 0.633580 3.438410 -1.626781
v 1.828680 0.891880 -1.645000
v 1.305650 -1.611440 -0.498220
v 0.633280 2.918290 -3.728301
v 0.788780 -1.672291 -3.721610
v 1.473000 1.043450 -3.768281
v 1.560100 -0.223120 -2.882340
v 1.334040 2.494530 -3.532491
v 0.844730 1.148219 -4.300971
v 1.629710 -0.348500 -1.984560
v 1.490130 -1.232450 -1.456380
v 1.394860 -1.610310 -0.912650
v 0.654470 -2.050970 -0.371600
v 0.726500 -0.128811 -3.608650
v 1.388210 -1.701331 -3.110370
v 1.438260 -1.791491 -2.464800
v 0.817050 -3.015711 -1.360640
v 1.337890 -2.427130 -2.084990
v 0.000000 0.008640 1.058720
v 0.000000 1.293330 0.271570
v -0.245160 0.009970 1.065330
v -0.159600 1.293330 0.271570
v -0.299630 1.085720 0.043430
v -1.374650 1.608700 -0.229210
v -1.399930 -0.362420 -0.131140
v -0.453210 -0.225040 0.608060
v -0.436340 -1.303760 0.627420
v -0.173330 -1.905450 0.739060
v 0.000000 -1.387280 0.737370
v 0.000000 1.647020 0.336560
v -0.431600 1.647020 0.336560
v 0.000000 -0.253020 0.951600
v -0.231500 -0.383950 0.743580
v 0.000000 -0.782490 0.843120
v 0.000000 -0.483420 0.695750
v -0.227170 -1.152460 0.706440
v 0.000000 -1.173470 0.830820
v -0.119900 -1.387280 0.668290
v 0.000000 -0.966190 0.799350
v -0.688630 -1.055350 0.422850
v -0.212970 -0.749080 0.792050
v -0.225120 -0.953820 0.666840
v -1.592110 2.613210 -1.779831
v -1.584130 0.946550 -0.414310
v -1.599980 -0.879210 -1.209690
v -0.402960 -1.966510 0.469450
v -0.990580 -1.217550 0.121050
v 0.000000 -2.135310 0.376480
v 0.000000 -1.905450 0.787150
v -0.633580 3.438410 -1.626781
v 0.000000 3.522480 -1.564321
v -0.622340 2.758580 -0.116340
v -1.258080 2.507660 -0.480060
v -1.828680 0.891880 -1.645000
v -1.490130 -1.232450 -1.456380
v -1.394860 -1.610310 -0.912650
v -1.560100 -0.223120 -2.882340
v -1.629710 -0.348500 -1.984560
v -0.654470 -2.050970 -0.371600
v -1.305650 -1.611440 -0.498220
v 0.000000 -3.166901 -1.182050
v 0.000000 -2.261220 -0.506770
v -0.633280 2.918290 -3.728301
v -1.334040 2.494530 -3.532491
v 0.000000 2.952860 -3.809311
v 0.000000 1.210510 -4.351521
v -0.844730 1.148219 -4.300971
v 0.000000 -0.040601 -3.687531
v -1.473000 1.043450 -3.768281
v -0.726500 -0.128811 -3.608650
v -1.337890 -2.427130 -2.084990
v -0.788780 -1.672291 -3.721610
v 0.000000 -1.707271 -3.824010
v -1.438260 -1.791491 -2.464800
v -1.388210 -1.701331 -3.110370
v 0.000000 -2.145820 -2.379360
v -0.817050 -3.015711 -1.360640
vn 0.3157 -0.1615 0.9350
vn 0.4379 -0.4768 0.7622
vn 0.4375 -0.5150 0.7372
vn -0.0229 -0.3788 0.9252
vn 0.4779 0.2159 0.8515
vn 0.1864 -0.2399 0.9527
vn 0.4743 -0.3526 0.8067
vn 0.4684 -0.3460 0.8129
vn 0.4884 0.1754 0.8548
vn 0.3242 -0.4795 0.8155
vn 0.9712 0.1481 0.1864
vn 0.9460 0.1949 0.2589
vn 0.9364 0.2197 0.2737
vn -0.2223 -0.9745 0.0314
vn 0.1343 -0.8647 0.4840
vn 0.4597 -0.8329 0.3083
vn 0.9806 0.1228 -0.1527
vn 0.2775 -0.9511 0.1356
vn 0.5714 -0.8117 0.1208
vn 0.9806 0.1192 -0.1558
vn 0.0826 -0.8251 -0.5589
vn 0.8723 -0.2706 0.4073
vn 0.8518 -0.3248 0.4111
vn 0.1781 -0.7312 0.6585
vn 0.0575 -0.9930 -0.1035
vn 0.2279 -0.9617 -0.1520
vn 0.1516 -0.9458 -0.2871
vn -0.0010 -0.7609 -0.6489
vn 0.0777 -0.5204 -0.8504
vn -0.0209 -0.7685 -0.6395
vn -0.3157 -0.1615 0.9350
vn -0.4658 -0.4932 0.7347
vn -0.4321 -0.4952 0.7537
vn 0.0229 -0.3788 0.9252
vn -0.4779 0.2159 0.8515
vn -0.1864 -0.2399 0.9527
vn -0.4669 -0.3542 0.8103
vn -0.4748 -0.3482 0.8083
vn -0.4884 0.1754 0.8548
vn -0.3242 -0.4795 0.8155
vn -0.9712 0.1481 0.1864
vn -0.9279 0.2069 0.3101
vn -0.9432 0.2079 0.2593
vn 0.2223 -0.9745 0.0314
vn -0.5570 -0.7247 0.4056
vn -0.0408 -0.9883 0.1472
vn -0.9806 0.1228 -0.1527
vn -0.2775 -0.9511 0.1356
vn -0.5714 -0.8117 0.1208
vn -0.9806 0.1192 -0.1558
vn -0.0826 -0.8251 -0.5589
vn -0.8732 -0.3094 0.3765
vn -0.8516 -0.2983 0.4310
vn -0.1781 -0.7312 0.6585
vn -0.0575 -0.9930 -0.1035
vn -0.2134 -0.9348 -0.2838
vn -0.0782 -0.9865 -0.1438
vn 0.0010 -0.7609 -0.6489
vn 0.6205 -0.3277 -0.7125
vn -0.1307 -0.6998 -0.7023
vn -0.0258 0.5246 0.8510
vn -0.0000 0.5224 0.8527
vn 0.9238 0.2440 0.2949
vn 0.9099 0.2494 0.3315
vn -0.0000 -0.1807 0.9835
vn 0.3463 0.1515 0.9258
vn 0.6039 0.3740 0.7039
vn 0.6153 -0.0014 0.7883
vn 0.6736 -0.1068 0.7313
vn 0.6794 -0.0903 0.7282
vn 0.6775 -0.2027 0.7071
vn 0.1856 -0.2367 0.9537
vn 0.7690 0.1637 0.6179
vn 0.4922 0.1674 0.8542
vn 0.2662 0.0922 0.9595
vn -0.0000 0.3773 0.9261
vn 0.0695 0.3428 0.9368
vn 0.4688 -0.6805 0.5631
vn 0.6016 -0.1747 0.7795
vn -0.3513 0.4138 0.8398
vn 0.2140 0.1179 0.9697
vn 0.4701 0.0927 0.8777
vn 0.6120 -0.0029 0.7909
vn 0.5588 0.2893 0.7772
vn 0.5056 0.2497 0.8258
vn 0.4598 0.1782 0.8699
vn 0.4976 0.1302 0.8576
vn 0.5052 -0.2000 0.8395
vn 0.2752 -0.4896 0.8274
vn 0.9738 -0.0728 0.2155
vn 0.9756 -0.0944 0.1981
vn 0.9581 -0.1450 0.2472
vn 0.8044 -0.2226 0.5508
vn 0.5146 -0.5805 0.6310
vn 0.8136 -0.5017 0.2937
vn 0.1591 0.9035 0.3980
vn 0.1816 0.8962 0.4047
vn 0.4513 0.8726 0.1868
vn 0.6474 0.6932 0.3168
vn 0.9880 -0.1422 -0.0595
vn 0.9685 -0.2213 -0.1144
vn 0.9596 -0.2800 -0.0264
vn 0.9607 -0.1857 0.2063
vn 0.9907 -0.1012 -0.0909
vn 0.0264 -0.5975 0.8014
vn 0.2748 -0.6653 0.6941
vn 0.1045 0.9654 -0.2389
vn 0.0841 0.9659 -0.2451
vn 0.6322 0.7612 -0.1446
vn 0.5474 0.8123 -0.2011
vn 0.1169 0.0772 -0.9901
vn 0.1248 0.0810 -0.9889
vn 0.9790 -0.1100 -0.1718
vn 0.9970 0.0161 -0.0751
vn 0.0798 0.3155 -0.9456
vn 0.1371 0.2943 -0.9458
vn 0.3658 0.1833 -0.9125
vn 0.6451 0.3039 -0.7011
vn 0.0173 -0.4778 -0.8783
vn 0.0390 -0.4684 -0.8826
vn 0.5636 -0.4334 -0.7032
vn 0.5273 -0.4624 -0.7129
vn 0.9898 -0.1402 0.0268
vn 0.7143 0.0248 -0.6994
vn 0.6600 0.0813 -0.7469
vn 0.0258 0.5246 0.8510
vn -0.9099 0.2494 0.3315
vn -0.9238 0.2440 0.2949
vn -0.6039 0.3740 0.7039
vn -0.3463 0.1515 0.9258
vn -0.6736 -0.1068 0.7313
vn -0.6153 -0.0014 0.7883
vn -0.6775 -0.2027 0.7071
vn -0.6794 -0.0903 0.7282
vn -0.7690 0.1637 0.6179
vn -0.1856 -0.2367 0.9537
vn -0.2662 0.0922 0.9595
vn -0.4922 0.1674 0.8542
vn -0.0695 0.3428 0.9368
vn -0.6016 -0.1747 0.7795
vn -0.4688 -0.6805 0.5631
vn -0.2140 0.1179 0.9697
vn 0.3513 0.4138 0.8398
vn -0.6120 -0.0029 0.7909
vn -0.4701 0.0927 0.8777
vn -0.5056 0.2497 0.8258
vn -0.5588 0.2893 0.7772
vn -0.4976 0.1302 0.8576
vn -0.4598 0.1782 0.8699
vn -0.2752 -0.4896 0.8274
vn -0.5052 -0.2000 0.8395
vn -0.9756 -0.0944 0.1981
vn -0.9738 -0.0728 0.2155
vn -0.8044 -0.2226 0.5508
vn -0.9581 -0.1450 0.2472
vn -0.8136 -0.5017 0.2937
vn -0.5146 -0.5805 0.6310
vn -0.1816 0.8962 0.4047
vn -0.1591 0.9035 0.3980
vn -0.6474 0.6932 0.3168
vn -0.4513 0.8726 0.1868
vn -0.9685 -0.2213 -0.1144
vn -0.9880 -0.1422 -0.0595
vn -0.9607 -0.1857 0.2063
vn -0.9596 -0.2800 -0.0264
vn -0.9907 -0.1012 -0.0909
vn -0.2748 -0.6653 0.6941
vn -0.0264 -0.5975 0.8014
vn -0.0841 0.9659 -0.2451
vn -0.1045 0.9654 -0.2389
vn -0.5474 0.8123 -0.2011
vn -0.6322 0.7612 -0.1446
vn -0.1248 0.0810 -0.9889
vn -0.1169 0.0772 -0.9901
vn -0.9970 0.0161 -0.0751
vn -0.9790 -0.1100 -0.1718
vn -0.1371 0.2943 -0.9458
vn -0.0798 0.3155 -0.9456
vn -0.6451 0.3039 -0.7011
vn -0.3658 0.1833 -0.9125
vn -0.0390 -0.4684 -0.8826
vn -0.0173 -0.4778 -0.8783
vn -0.5273 -0.4624 -0.7129
vn -0.5636 -0.4334 -0.7032
vn -0.9898 -0.1402 0.0268
vn -0.6600 0.0813 -0.7469
vn -0.7143 0.0248 -0.6994
vt 0.732577 0.821294
vt 1.422992 0.842866
vt 1.191902 1.148444
vt 0.695252 1.107506
vt 0.576657 0.911395
vt 0.570247 0.283289
vt 0.501043 0.283081
vt 0.501310 0.184965
vt 0.692794 -0.323678
vt 0.850399 -0.226463
vt 0.603017 -0.250907
vt 0.556903 -0.350568
vt 0.498964 -0.248462
vt 0.496954 -0.344498
vt 0.615393 -0.163943
vt 0.593453 -0.062605
vt 2.168833 0.994609
vt 1.719556 2.065546
vt 1.114357 1.571846
vt 0.980058 -0.967920
vt 0.677387 -0.603401
vt 0.548350 -0.546772
vt 0.492921 -0.540550
vt 0.491942 -0.701900
vt -2.572731 1.103216
vt -2.549685 0.418367
vt -2.004093 1.067465
vt 0.494608 -1.177927
vt 1.636027 -0.728084
vt 1.380151 -0.621811
vt -1.847461 0.678694
vt -2.337615 -0.417769
vt -2.527891 -0.605670
vt -2.583793 -0.974821
vt -2.102777 -1.105364
vt -1.945750 -0.756113
vt 0.616619 0.104268
vt 0.500989 0.060729
vt -1.125944 -0.772328
vt -1.402969 -0.772328
vt -1.636514 -0.957512
vt -1.687474 -1.178083
vt -1.172466 -1.310630
vt -1.496985 -1.769355
vt -1.221278 -1.871944
vt -1.658541 -1.435543
vt -0.179279 1.159628
vt -0.420974 0.867189
vt 0.271952 0.814980
vt 0.420388 0.914318
vt 0.313448 1.112115
vt 0.432060 0.282956
vt 0.303561 -0.318874
vt 0.394141 -0.247999
vt 0.148548 -0.220937
vt 0.436871 -0.349407
vt 0.383782 -0.161627
vt 0.407235 -0.061096
vt -0.708653 2.155803
vt -1.195512 1.033050
vt -0.117634 1.592829
vt 0.433775 -0.534344
vt 0.314044 -0.591484
vt 0.036468 -0.956818
vt -2.575076 1.102076
vt -2.004432 1.065542
vt -2.552742 0.414713
vt -0.375887 -0.619933
vt -0.632954 -0.733802
vt -1.847691 0.675221
vt -2.576397 -0.979894
vt -2.526526 -0.612119
vt -2.340177 -0.422764
vt -1.948562 -0.763950
vt -2.110460 -1.102182
vt 0.386156 0.105396
vt -0.648903 -1.044330
vt -0.849897 -0.819788
vt -0.642576 -1.274238
vt -0.932041 -1.818403
vt -0.693143 -1.530729
vt 0.498552 0.907413
vt 0.745417 0.167827
vt 0.502921 1.100017
vt 1.344441 0.107712
vt 1.053057 -0.336083
vt 0.775531 1.622401
vt 0.508753 1.679631
vt 0.500266 -0.077682
vt 0.499619 -0.161854
vt 2.009404 -0.279553
vt 0.938862 2.488547
vt 0.534067 2.509676
vt -2.254548 -0.017448
vt -2.469049 -0.299724
vt -1.949783 0.149935
vt -1.895298 -0.471821
vt -1.681582 -0.359799
vt -2.594301 -1.225597
vt -2.222425 -1.385363
vt -2.436255 1.809912
vt -2.516343 1.585421
vt -1.856469 1.272858
vt -1.705095 1.424334
vt -1.292096 0.399195
vt -1.548171 0.302967
vt -1.387857 -0.261517
vt -1.104163 -0.187332
vt -1.618218 0.772771
vt -1.356834 0.885076
vt 0.259381 0.169499
vt -0.347279 0.115110
vt -0.054043 -0.329396
vt 0.237552 1.632120
vt -1.023304 -0.283866
vt 0.125740 2.518432
vt -2.256770 -0.022597
vt -2.471959 -0.306004
vt -1.950947 0.144871
vt -1.682762 -0.366923
vt -1.897384 -0.478935
vt -2.223839 -1.373757
vt -2.584532 -1.222345
vt -2.437282 1.811147
vt -1.703954 1.423331
vt -1.856047 1.271493
vt -2.517919 1.585946
vt -1.290764 0.394044
vt -1.103086 -0.194787
vt -1.387869 -0.268791
vt -1.547853 0.297848
vt -1.355095 0.881733
vt -1.617545 0.769354
s 0
f 1/1/1 18/2/1 19/3/1
f 19/3/2 2/4/2 3/5/2
f 19/3/3 3/5/3 1/1/3
f 9/6/4 42/7/4 55/8/4
f 7/9/5 17/10/5 13/11/5
f 14/12/6 7/9/6 13/11/6
f 13/11/7 60/13/7 52/14/7
f 13/11/8 52/14/8 14/12/8
f 13/11/9 17/10/9 15/15/9
f 16/16/10 15/15/10 17/10/10
f 18/2/11 25/17/11 23/18/11
f 23/18/12 11/19/12 19/3/12
f 23/18/13 19/3/13 18/2/13
f 36/20/14 6/21/14 21/22/14
f 21/22/15 72/23/15 71/24/15
f 21/22/16 71/24/16 36/20/16
f 23/25/17 25/26/17 31/27/17
f 36/20/18 71/24/18 85/28/18
f 36/20/19 35/29/19 26/30/19
f 31/27/20 25/26/20 29/31/20
f 34/32/21 35/33/21 36/34/21
f 36/34/22 40/35/22 41/36/22
f 36/34/23 41/36/23 34/32/23
f 10/37/24 55/8/24 58/38/24
f 96/39/25 28/40/25 38/41/25
f 38/41/26 39/42/26 99/43/26
f 38/41/27 99/43/27 96/39/27
f 40/44/28 84/45/28 99/43/28
f 99/43/29 39/42/29 41/46/29
f 99/43/30 41/46/30 40/44/30
f 47/47/31 67/48/31 46/49/31
f 46/49/32 45/50/32 54/51/32
f 46/49/33 54/51/33 47/47/33
f 44/52/34 55/8/34 42/7/34
f 50/53/35 59/54/35 63/55/35
f 59/54/36 50/53/36 61/56/36
f 61/56/37 52/14/37 60/13/37
f 61/56/38 60/13/38 59/54/38
f 59/54/39 65/57/39 63/55/39
f 64/58/40 63/55/40 65/57/40
f 66/59/41 77/60/41 67/48/41
f 67/48/42 47/47/42 76/61/42
f 67/48/43 76/61/43 66/59/43
f 51/62/44 69/63/44 82/64/44
f 82/64/45 71/24/45 72/23/45
f 82/64/46 72/23/46 51/62/46
f 66/65/47 87/66/47 77/67/47
f 82/64/48 85/28/48 71/24/48
f 82/64/49 83/68/49 79/69/49
f 87/66/50 92/70/50 77/67/50
f 82/71/51 79/72/51 78/73/51
f 78/73/52 94/74/52 100/75/52
f 78/73/53 100/75/53 82/71/53
f 56/76/54 58/38/54 55/8/54
f 98/77/55 95/78/55 96/39/55
f 96/39/56 99/43/56 97/79/56
f 96/39/57 97/79/57 98/77/57
f 99/43/58 84/45/58 100/80/58
f 100/80/59 94/81/59 97/79/59
f 100/80/60 97/79/60 99/43/60
f 42/7/61 9/6/61 3/5/61
f 42/7/62 3/5/62 43/82/62
f 3/5/63 9/6/63 8/83/63
f 3/5/64 8/83/64 1/1/64
f 43/82/65 3/5/65 2/4/65
f 43/82/65 2/4/65 53/84/65
f 4/85/66 18/2/66 1/1/66
f 4/85/67 1/1/67 8/83/67
f 4/85/68 8/83/68 17/10/68
f 4/85/69 17/10/69 5/86/69
f 5/86/70 17/10/70 7/9/70
f 5/86/71 7/9/71 6/21/71
f 6/21/72 7/9/72 14/12/72
f 6/21/73 14/12/73 21/22/73
f 21/22/74 14/12/74 52/14/74
f 21/22/75 52/14/75 72/23/75
f 53/84/76 2/4/76 12/87/76
f 53/84/77 12/87/77 22/88/77
f 8/83/78 9/6/78 55/8/78
f 8/83/79 55/8/79 10/37/79
f 10/37/80 58/38/80 57/89/80
f 10/37/81 57/89/81 16/16/81
f 8/83/82 10/37/82 16/16/82
f 8/83/83 16/16/83 17/10/83
f 19/3/84 11/19/84 12/87/84
f 19/3/85 12/87/85 2/4/85
f 60/13/86 13/11/86 15/15/86
f 60/13/87 15/15/87 62/90/87
f 57/89/88 62/90/88 15/15/88
f 57/89/89 15/15/89 16/16/89
f 4/85/90 20/91/90 25/17/90
f 4/85/91 25/17/91 18/2/91
f 26/30/92 20/91/92 4/85/92
f 26/30/93 4/85/93 5/86/93
f 36/20/94 26/30/94 5/86/94
f 36/20/95 5/86/95 6/21/95
f 24/92/96 74/93/96 22/88/96
f 24/92/97 22/88/97 12/87/97
f 12/87/98 11/19/98 23/18/98
f 12/87/99 23/18/99 24/92/99
f 33/94/100 25/26/100 20/95/100
f 33/94/101 20/95/101 34/32/101
f 35/33/102 34/32/102 20/95/102
f 35/29/103 20/91/103 26/30/103
f 30/96/104 33/94/104 39/97/104
f 30/96/104 39/97/104 38/98/104
f 36/34/105 85/99/105 84/100/105
f 36/34/106 84/100/106 40/35/106
f 74/101/107 24/102/107 27/103/107
f 74/101/108 27/103/108 88/104/108
f 24/102/109 23/25/109 31/27/109
f 24/102/110 31/27/110 27/103/110
f 91/105/111 37/106/111 28/107/111
f 91/105/112 28/107/112 96/108/112
f 29/31/113 25/26/113 33/94/113
f 29/31/114 33/94/114 30/96/114
f 27/103/115 32/109/115 89/110/115
f 27/103/116 89/110/116 88/104/116
f 27/103/117 31/27/117 29/31/117
f 27/103/118 29/31/118 32/109/118
f 89/110/119 32/109/119 37/106/119
f 89/110/120 37/106/120 91/105/120
f 30/96/121 37/106/121 32/109/121
f 30/96/122 32/109/122 29/31/122
f 33/94/123 34/32/123 41/36/123
f 33/94/123 41/36/123 39/97/123
f 30/96/124 38/98/124 28/107/124
f 30/96/125 28/107/125 37/106/125
f 42/7/62 43/82/62 45/50/62
f 42/7/126 45/50/126 44/52/126
f 45/50/127 46/49/127 49/111/127
f 45/50/128 49/111/128 44/52/128
f 43/82/65 53/84/65 54/51/65
f 43/82/65 54/51/65 45/50/65
f 48/112/129 49/111/129 46/49/129
f 48/112/130 46/49/130 67/48/130
f 48/112/131 70/113/131 63/55/131
f 48/112/132 63/55/132 49/111/132
f 70/113/133 69/63/133 50/53/133
f 70/113/134 50/53/134 63/55/134
f 69/63/135 51/62/135 61/56/135
f 69/63/136 61/56/136 50/53/136
f 51/62/137 72/23/137 52/14/137
f 51/62/138 52/14/138 61/56/138
f 53/84/139 22/88/139 75/114/139
f 53/84/76 75/114/76 54/51/76
f 49/111/140 56/76/140 55/8/140
f 49/111/141 55/8/141 44/52/141
f 56/76/142 64/58/142 57/89/142
f 56/76/143 57/89/143 58/38/143
f 49/111/144 63/55/144 64/58/144
f 49/111/145 64/58/145 56/76/145
f 47/47/146 54/51/146 75/114/146
f 47/47/147 75/114/147 76/61/147
f 60/13/148 62/90/148 65/57/148
f 60/13/149 65/57/149 59/54/149
f 57/89/150 64/58/150 65/57/150
f 57/89/151 65/57/151 62/90/151
f 48/112/152 67/48/152 77/60/152
f 48/112/153 77/60/153 68/115/153
f 83/68/154 70/113/154 48/112/154
f 83/68/155 48/112/155 68/115/155
f 82/64/156 69/63/156 70/113/156
f 82/64/157 70/113/157 83/68/157
f 73/116/158 75/114/158 22/88/158
f 73/116/159 22/88/159 74/93/159
f 75/114/160 73/116/160 66/59/160
f 75/114/161 66/59/161 76/61/161
f 81/117/162 78/73/162 68/118/162
f 81/117/163 68/118/163 77/67/163
f 79/69/164 83/68/164 68/115/164
f 79/72/165 68/118/165 78/73/165
f 80/119/166 98/120/166 97/121/166
f 80/119/166 97/121/166 81/117/166
f 82/71/167 100/75/167 84/122/167
f 82/71/168 84/122/168 85/123/168
f 74/124/169 88/125/169 86/126/169
f 74/124/170 86/126/170 73/127/170
f 73/127/171 86/126/171 87/66/171
f 73/127/172 87/66/172 66/65/172
f 91/128/173 96/129/173 95/130/173
f 91/128/174 95/130/174 93/131/174
f 92/70/175 80/119/175 81/117/175
f 92/70/176 81/117/176 77/67/176
f 86/126/177 88/125/177 89/132/177
f 86/126/178 89/132/178 90/133/178
f 86/126/179 90/133/179 92/70/179
f 86/126/180 92/70/180 87/66/180
f 89/132/181 91/128/181 93/131/181
f 89/132/182 93/131/182 90/133/182
f 80/119/183 92/70/183 90/133/183
f 80/119/184 90/133/184 93/131/184
f 81/117/185 97/121/185 94/74/185
f 81/117/185 94/74/185 78/73/185
f 80/119/186 93/131/186 95/130/186
f 80/119/187 95/130/187 98/120/187
